<svg width="62" height="62" viewBox="0 0 62 62" fill="none" xmlns="http://www.w3.org/2000/svg">
<circle cx="31" cy="31" r="31" fill="#F9F9F9"/>
<path d="M37.25 21H24.75C21 21 18.5 22.875 18.5 27.25V31.7C18.5 32.1625 18.975 32.45 19.3875 32.2625C20.6125 31.7 22.025 31.4875 23.5125 31.75C26.8 32.3375 29.2125 35.3875 29.125 38.725C29.1125 39.25 29.0375 39.7625 28.9 40.2625C28.8 40.65 29.1125 41.0125 29.5125 41.0125H37.25C41 41.0125 43.5 39.1375 43.5 34.7625V27.25C43.5 22.875 41 21 37.25 21ZM31 34.125C29.275 34.125 27.875 32.725 27.875 31C27.875 29.275 29.275 27.875 31 27.875C32.725 27.875 34.125 29.275 34.125 31C34.125 32.725 32.725 34.125 31 34.125ZM40.0625 33.5C40.0625 34.0125 39.6375 34.4375 39.125 34.4375C38.6125 34.4375 38.1875 34.0125 38.1875 33.5V28.5C38.1875 27.9875 38.6125 27.5625 39.125 27.5625C39.6375 27.5625 40.0625 27.9875 40.0625 28.5V33.5Z" fill="url(#paint0_linear_2_5384)"/>
<path d="M22.25 33.5C19.4875 33.5 17.25 35.7375 17.25 38.5C17.25 39.4375 17.5125 40.325 17.975 41.075C18.8375 42.525 20.425 43.5 22.25 43.5C24.075 43.5 25.6625 42.525 26.525 41.075C26.9875 40.325 27.25 39.4375 27.25 38.5C27.25 35.7375 25.0125 33.5 22.25 33.5ZM24.7125 38.0875L22.05 40.55C21.875 40.7125 21.6375 40.8 21.4125 40.8C21.175 40.8 20.9375 40.7125 20.75 40.525L19.5125 39.2875C19.15 38.925 19.15 38.325 19.5125 37.9625C19.875 37.6 20.475 37.6 20.8375 37.9625L21.4375 38.5625L23.4375 36.7125C23.8125 36.3625 24.4125 36.3875 24.7625 36.7625C25.1125 37.1375 25.0875 37.7375 24.7125 38.0875Z" fill="url(#paint1_linear_2_5384)"/>
<defs>
<linearGradient id="paint0_linear_2_5384" x1="19" y1="40.6123" x2="54.8778" y2="-0.22302" gradientUnits="userSpaceOnUse">
<stop offset="0.138287" stop-color="#FFB23F"/>
<stop offset="0.467052" stop-color="#FAD8A5"/>
</linearGradient>
<linearGradient id="paint1_linear_2_5384" x1="28.7682" y1="106.093" x2="3.07542" y2="104.057" gradientUnits="userSpaceOnUse">
<stop offset="0.25249" stop-color="#40B4A6"/>
<stop offset="0.637527" stop-color="#A6D8D2"/>
</linearGradient>
</defs>
</svg>
