<svg width="62" height="62" viewBox="0 0 62 62" fill="none" xmlns="http://www.w3.org/2000/svg">
<circle cx="31" cy="31" r="31" fill="#F9F9F9"/>
<path d="M36.9373 20.45V18.5C36.9373 17.9875 36.5123 17.5625 35.9998 17.5625C35.4873 17.5625 35.0623 17.9875 35.0623 18.5V20.375H26.9373V18.5C26.9373 17.9875 26.5123 17.5625 25.9998 17.5625C25.4873 17.5625 25.0623 17.9875 25.0623 18.5V20.45C21.6873 20.7625 20.0498 22.775 19.7998 25.7625C19.7748 26.125 20.0748 26.425 20.4248 26.425H41.5748C41.9373 26.425 42.2373 26.1125 42.1998 25.7625C41.9498 22.775 40.3123 20.7625 36.9373 20.45Z" fill="url(#paint0_linear_2_5434)"/>
<path d="M39.75 34.75C36.9875 34.75 34.75 36.9875 34.75 39.75C34.75 40.6875 35.0125 41.575 35.475 42.325C36.3375 43.775 37.925 44.75 39.75 44.75C41.575 44.75 43.1625 43.775 44.025 42.325C44.4875 41.575 44.75 40.6875 44.75 39.75C44.75 36.9875 42.5125 34.75 39.75 34.75ZM42.3375 39.2125L39.675 41.675C39.5 41.8375 39.2625 41.925 39.0375 41.925C38.8 41.925 38.5625 41.8375 38.375 41.65L37.1375 40.4125C36.775 40.05 36.775 39.45 37.1375 39.0875C37.5 38.725 38.1 38.725 38.4625 39.0875L39.0625 39.6875L41.0625 37.8375C41.4375 37.4875 42.0375 37.5125 42.3875 37.8875C42.7375 38.2625 42.7125 38.85 42.3375 39.2125Z" fill="url(#paint1_linear_2_5434)"/>
<path d="M41 28.3H21C20.3125 28.3 19.75 28.8625 19.75 29.55V37.25C19.75 41 21.625 43.5 26 43.5H32.1625C33.025 43.5 33.625 42.6625 33.35 41.85C33.1 41.125 32.8875 40.325 32.8875 39.75C32.8875 35.9625 35.975 32.875 39.7625 32.875C40.125 32.875 40.4875 32.9 40.8375 32.9625C41.5875 33.075 42.2625 32.4875 42.2625 31.7375V29.5625C42.25 28.8625 41.6875 28.3 41 28.3ZM27.5125 38.7625C27.275 38.9875 26.95 39.125 26.625 39.125C26.3 39.125 25.975 38.9875 25.7375 38.7625C25.5125 38.525 25.375 38.2 25.375 37.875C25.375 37.55 25.5125 37.225 25.7375 36.9875C25.8625 36.875 25.9875 36.7875 26.15 36.725C26.6125 36.525 27.1625 36.6375 27.5125 36.9875C27.7375 37.225 27.875 37.55 27.875 37.875C27.875 38.2 27.7375 38.525 27.5125 38.7625ZM27.5125 34.3875C27.45 34.4375 27.3875 34.4875 27.325 34.5375C27.25 34.5875 27.175 34.625 27.1 34.65C27.025 34.6875 26.95 34.7125 26.875 34.725C26.7875 34.7375 26.7 34.75 26.625 34.75C26.3 34.75 25.975 34.6125 25.7375 34.3875C25.5125 34.15 25.375 33.825 25.375 33.5C25.375 33.175 25.5125 32.85 25.7375 32.6125C26.025 32.325 26.4625 32.1875 26.875 32.275C26.95 32.2875 27.025 32.3125 27.1 32.35C27.175 32.375 27.25 32.4125 27.325 32.4625C27.3875 32.5125 27.45 32.5625 27.5125 32.6125C27.7375 32.85 27.875 33.175 27.875 33.5C27.875 33.825 27.7375 34.15 27.5125 34.3875ZM31.8875 34.3875C31.65 34.6125 31.325 34.75 31 34.75C30.675 34.75 30.35 34.6125 30.1125 34.3875C29.8875 34.15 29.75 33.825 29.75 33.5C29.75 33.175 29.8875 32.85 30.1125 32.6125C30.5875 32.15 31.425 32.15 31.8875 32.6125C32.1125 32.85 32.25 33.175 32.25 33.5C32.25 33.825 32.1125 34.15 31.8875 34.3875Z" fill="url(#paint2_linear_2_5434)"/>
<defs>
<linearGradient id="paint0_linear_2_5434" x1="45.6043" y1="81.8977" x2="-10.0864" y2="70.743" gradientUnits="userSpaceOnUse">
<stop offset="0.25249" stop-color="#59A49E"/>
<stop offset="0.637527" stop-color="#A6D8D2"/>
</linearGradient>
<linearGradient id="paint1_linear_2_5434" x1="46.2682" y1="107.343" x2="20.5754" y2="105.307" gradientUnits="userSpaceOnUse">
<stop offset="0.25249" stop-color="#59A49E"/>
<stop offset="0.637527" stop-color="#A6D8D2"/>
</linearGradient>
<linearGradient id="paint2_linear_2_5434" x1="20.2003" y1="43.196" x2="46.4895" y2="7.72041" gradientUnits="userSpaceOnUse">
<stop offset="0.138287" stop-color="#FFB23F"/>
<stop offset="0.467052" stop-color="#FAD8A5"/>
</linearGradient>
</defs>
</svg>
