<svg width="62" height="62" viewBox="0 0 62 62" fill="none" xmlns="http://www.w3.org/2000/svg">
<circle cx="31" cy="31" r="31" fill="#F9F9F9"/>
<path d="M38.2623 22.8625V23.7875L33.8373 21.225C32.1623 20.2625 29.8248 20.2625 28.1623 21.225L23.7373 23.8V22.8625C23.7373 20.05 25.2748 18.5 28.0873 18.5H33.9123C36.7248 18.5 38.2623 20.05 38.2623 22.8625Z" fill="url(#paint0_linear_2_7432)"/>
<path d="M38.3 25.9625L38.125 25.875L36.425 24.9L32.9 22.8625C31.825 22.2375 30.175 22.2375 29.1 22.8625L25.575 24.8875L23.875 25.8875L23.65 26C21.4625 27.475 21.3125 27.75 21.3125 30.1125V35.7625C21.3125 38.125 21.4625 38.4 23.7 39.9125L29.1 43.025C29.6375 43.35 30.3125 43.4875 31 43.4875C31.675 43.4875 32.3625 43.3375 32.9 43.025L38.35 39.875C40.55 38.4 40.6875 38.1375 40.6875 35.7625V30.1125C40.6875 27.75 40.5375 27.475 38.3 25.9625ZM34.4875 32.875L33.725 33.8125C33.6 33.95 33.5125 34.2125 33.525 34.4L33.6 35.6C33.65 36.3375 33.125 36.7125 32.4375 36.45L31.325 36C31.15 35.9375 30.8625 35.9375 30.6875 36L29.575 36.4375C28.8875 36.7125 28.3625 36.325 28.4125 35.5875L28.4875 34.3875C28.5 34.2 28.4125 33.9375 28.2875 33.8L27.5125 32.875C27.0375 32.3125 27.25 31.6875 27.9625 31.5L29.125 31.2C29.3125 31.15 29.525 30.975 29.625 30.825L30.275 29.825C30.675 29.2 31.3125 29.2 31.725 29.825L32.375 30.825C32.475 30.9875 32.7 31.15 32.875 31.2L34.0375 31.5C34.75 31.6875 34.9625 32.3125 34.4875 32.875Z" fill="url(#paint1_linear_2_7432)"/>
<defs>
<linearGradient id="paint0_linear_2_7432" x1="50.5" y1="-29" x2="4.5" y2="42.5" gradientUnits="userSpaceOnUse">
<stop offset="0.390186" stop-color="#59A49E"/>
<stop offset="0.767343" stop-color="#A6D8D2"/>
</linearGradient>
<linearGradient id="paint1_linear_2_7432" x1="23.5" y1="41" x2="41" y2="22" gradientUnits="userSpaceOnUse">
<stop offset="0.212076" stop-color="#FFB23F"/>
<stop offset="0.720856" stop-color="#FAD8A5"/>
</linearGradient>
</defs>
</svg>
