<svg width="62" height="62" viewBox="0 0 62 62" fill="none" xmlns="http://www.w3.org/2000/svg">
<circle cx="31" cy="31" r="31" fill="#F9F9F9"/>
<path d="M37.2498 26.9C37.0123 26.9 36.7748 26.8125 36.5873 26.625L34.0873 24.125C33.7248 23.7625 33.7248 23.1625 34.0873 22.8C34.4498 22.4375 35.0498 22.4375 35.4123 22.8L37.2498 24.6375L41.5873 20.3125C41.9498 19.95 42.5498 19.95 42.9123 20.3125C43.2748 20.675 43.2748 21.275 42.9123 21.6375L37.9123 26.6375C37.7248 26.8 37.4873 26.9 37.2498 26.9Z" fill="url(#paint0_linear_2_7446)"/>
<path d="M29.8125 34.6875L27.5 37C27.0125 37.4875 26.2375 37.4875 25.7375 37.0125C25.6 36.875 25.4625 36.75 25.325 36.6125C24.0375 35.3125 22.875 33.95 21.8375 32.525C20.8125 31.1 19.9875 29.675 19.3875 28.2625C18.8 26.8375 18.5 25.475 18.5 24.175C18.5 23.325 18.65 22.5125 18.95 21.7625C19.25 21 19.725 20.3 20.3875 19.675C21.1875 18.8875 22.0625 18.5 22.9875 18.5C23.3375 18.5 23.6875 18.575 24 18.725C24.325 18.875 24.6125 19.1 24.8375 19.425L27.7375 23.5125C27.9625 23.825 28.125 24.1125 28.2375 24.3875C28.35 24.65 28.4125 24.9125 28.4125 25.15C28.4125 25.45 28.325 25.75 28.15 26.0375C27.9875 26.325 27.75 26.625 27.45 26.925L26.5 27.9125C26.3625 28.05 26.3 28.2125 26.3 28.4125C26.3 28.5125 26.3125 28.6 26.3375 28.7C26.375 28.8 26.4125 28.875 26.4375 28.95C26.6625 29.3625 27.05 29.9 27.6 30.55C28.1625 31.2 28.7625 31.8625 29.4125 32.525C29.5375 32.65 29.675 32.775 29.8 32.9C30.3 33.3875 30.3125 34.1875 29.8125 34.6875Z" fill="url(#paint1_linear_2_7446)"/>
<path d="M43.4625 38.9125C43.4625 39.2625 43.4 39.625 43.275 39.975C43.2375 40.075 43.2 40.175 43.15 40.275C42.9375 40.725 42.6625 41.15 42.3 41.55C41.6875 42.225 41.0125 42.7125 40.25 43.025C40.2375 43.025 40.225 43.0375 40.2125 43.0375C39.475 43.3375 38.675 43.5 37.8125 43.5C36.5375 43.5 35.175 43.2 33.7375 42.5875C32.3 41.975 30.8625 41.15 29.4375 40.1125C28.95 39.75 28.4625 39.3875 28 39L32.0875 34.9125C32.4375 35.175 32.75 35.375 33.0125 35.5125C33.075 35.5375 33.15 35.575 33.2375 35.6125C33.3375 35.65 33.4375 35.6625 33.55 35.6625C33.7625 35.6625 33.925 35.5875 34.0625 35.45L35.0125 34.5125C35.325 34.2 35.625 33.9625 35.9125 33.8125C36.2 33.6375 36.4875 33.55 36.8 33.55C37.0375 33.55 37.2875 33.6 37.5625 33.7125C37.8375 33.825 38.125 33.9875 38.4375 34.2L42.575 37.1375C42.9 37.3625 43.125 37.625 43.2625 37.9375C43.3875 38.25 43.4625 38.5625 43.4625 38.9125Z" fill="url(#paint2_linear_2_7446)"/>
<defs>
<linearGradient id="paint0_linear_2_7446" x1="45.3749" y1="18.5" x2="33.4999" y2="26" gradientUnits="userSpaceOnUse">
<stop stop-color="#69AFA9"/>
<stop offset="0.8197" stop-color="#A1D5CF"/>
</linearGradient>
<linearGradient id="paint1_linear_2_7446" x1="5.375" y1="18.5" x2="64.125" y2="59.125" gradientUnits="userSpaceOnUse">
<stop offset="0.198716" stop-color="#FFB23F"/>
<stop offset="1" stop-color="#FAD8A5"/>
</linearGradient>
<linearGradient id="paint2_linear_2_7446" x1="14.7499" y1="33.5" x2="45.9999" y2="41.625" gradientUnits="userSpaceOnUse">
<stop offset="0.365293" stop-color="#FFB23F"/>
<stop offset="1" stop-color="#FAD8A5"/>
</linearGradient>
</defs>
</svg>
