<svg width="62" height="62" viewBox="0 0 62 62" fill="none" xmlns="http://www.w3.org/2000/svg">
<circle cx="31" cy="31" r="31" fill="#F9F9F9"/>
<path d="M32.4875 23.5H24.4875C24.1625 23.5 23.85 23.5125 23.55 23.55C20.1875 23.8375 18.5 25.825 18.5 29.4875V34.4875C18.5 39.4875 20.5 40.475 24.4875 40.475H24.9875C25.2625 40.475 25.625 40.6625 25.7875 40.875L27.2875 42.875C27.95 43.7625 29.025 43.7625 29.6875 42.875L31.1875 40.875C31.375 40.625 31.675 40.475 31.9875 40.475H32.4875C36.15 40.475 38.1375 38.8 38.425 35.425C38.4625 35.125 38.475 34.8125 38.475 34.4875V29.4875C38.475 25.5 36.475 23.5 32.4875 23.5ZM24.125 33.5C23.425 33.5 22.875 32.9375 22.875 32.25C22.875 31.5625 23.4375 31 24.125 31C24.8125 31 25.375 31.5625 25.375 32.25C25.375 32.9375 24.8125 33.5 24.125 33.5ZM28.4875 33.5C27.7875 33.5 27.2375 32.9375 27.2375 32.25C27.2375 31.5625 27.8 31 28.4875 31C29.175 31 29.7375 31.5625 29.7375 32.25C29.7375 32.9375 29.1875 33.5 28.4875 33.5ZM32.8625 33.5C32.1625 33.5 31.6125 32.9375 31.6125 32.25C31.6125 31.5625 32.175 31 32.8625 31C33.55 31 34.1125 31.5625 34.1125 32.25C34.1125 32.9375 33.55 33.5 32.8625 33.5Z" fill="url(#paint0_linear_2_7439)"/>
<path d="M43.4748 24.4875V29.4875C43.4748 31.9875 42.6998 33.6875 41.1498 34.625C40.7748 34.85 40.3373 34.55 40.3373 34.1125L40.3498 29.4875C40.3498 24.4875 37.4873 21.625 32.4873 21.625L24.8748 21.6375C24.4373 21.6375 24.1373 21.2 24.3623 20.825C25.2998 19.275 26.9998 18.5 29.4873 18.5H37.4873C41.4748 18.5 43.4748 20.5 43.4748 24.4875Z" fill="url(#paint1_linear_2_7439)"/>
<defs>
<linearGradient id="paint0_linear_2_7439" x1="16" y1="46" x2="53.5" y2="5.375" gradientUnits="userSpaceOnUse">
<stop offset="0.203125" stop-color="#FFB23F"/>
<stop offset="0.540676" stop-color="#FAD8A5"/>
</linearGradient>
<linearGradient id="paint1_linear_2_7439" x1="54.1251" y1="9.75" x2="21.6251" y2="24.125" gradientUnits="userSpaceOnUse">
<stop offset="0.351787" stop-color="#66ADA7"/>
<stop offset="0.884165" stop-color="#9FD3CD"/>
</linearGradient>
</defs>
</svg>
